<?xml version="1.0" encoding="utf-8"?>
<!-- Generator: Adobe Illustrator 25.1.0, SVG Export Plug-In . SVG Version: 6.00 Build 0)  -->
<svg version="1.1" id="Layer_1" xmlns="http://www.w3.org/2000/svg" xmlns:xlink="http://www.w3.org/1999/xlink" x="0px" y="0px"
	 width="1920px" height="1080px" viewBox="0 0 1920 1080" enable-background="new 0 0 1920 1080" xml:space="preserve">
<path d="M777.1,431.6v216.7h366.2V431.6H777.1z M791.1,445.6h338.2v188.7H791.1V445.6z"/>
<g>
	<path d="M841.3,574.5c-1.5,0-3.1-0.6-4.2-1.8c-2.3-2.3-2.3-6.1,0-8.5l57.1-57.1c2.3-2.3,6.1-2.3,8.5,0c2.3,2.3,2.3,6.1,0,8.5
		l-57.1,57.1C844.4,573.9,842.9,574.5,841.3,574.5z"/>
	<path d="M1032,574.1c-3.3,0-6-2.7-6-6v-56.4c0-3.3,2.7-6,6-6c3.3,0,6,2.7,6,6v56.4C1038,571.4,1035.3,574.1,1032,574.1z"/>
	<path d="M898.5,574.5c-1.5,0-3.1-0.6-4.2-1.8L880.5,559c-2.3-2.3-2.3-6.1,0-8.5c2.3-2.3,6.1-2.3,8.5,0l13.7,13.7
		c2.3,2.3,2.3,6.1,0,8.5C901.6,573.9,900,574.5,898.5,574.5z"/>
	<path d="M884.8,554.8"/>
	<path d="M855,525"/>
	<path d="M855,531c-1.5,0-3.1-0.6-4.2-1.8l-13.6-13.6c-2.3-2.3-2.3-6.1,0-8.5s6.1-2.3,8.5,0l13.6,13.6c2.3,2.3,2.3,6.1,0,8.5
		C858.1,530.4,856.5,531,855,531z"/>
	<path d="M951.8,571.8c-0.7,0-1.5-0.1-2.2-0.4c-13.1-5.1-21.5-17.4-21.5-31.4c0-13.4,7.9-25.5,20.2-30.9c3-1.3,6.6,0.1,7.9,3.1
		s-0.1,6.6-3.1,7.9c-7.9,3.5-13,11.3-13,19.9c0,9,5.4,17,13.8,20.3c3.1,1.2,4.6,4.7,3.4,7.8C956.5,570.3,954.2,571.8,951.8,571.8z"
		/>
	<path d="M971.5,571.9c-2.4,0-4.7-1.5-5.6-3.9c-1.1-3.1,0.4-6.6,3.6-7.7c8.5-3.1,14.2-11.3,14.2-20.4c0-8.9-5.6-17.1-13.9-20.3
		c-3.1-1.2-4.6-4.7-3.4-7.8c1.2-3.1,4.7-4.6,7.8-3.4c12.9,5,21.5,17.6,21.5,31.5c0,14.1-8.9,26.8-22.1,31.7
		C972.9,571.8,972.2,571.9,971.5,571.9z"/>
	<path d="M1078.8,574.1c-1.5,0-3-0.6-4.2-1.7l-25.4-24.9c-1.7-1.7-2.3-4.3-1.4-6.6s3.1-3.7,5.6-3.7h6.3c5.1,0,9.3-4.2,9.3-9.3
		s-4.2-9.3-9.3-9.3h-6.3c-3.3,0-6-2.7-6-6s2.7-6,6-6h6.3c11.7,0,21.3,9.5,21.3,21.3c0,9.2-5.9,17.1-14.2,20.1l16.2,15.9
		c2.4,2.3,2.4,6.1,0.1,8.5C1081.9,573.5,1080.4,574.1,1078.8,574.1z"/>
</g>
</svg>
