<?xml version="1.0" encoding="utf-8"?>
<!-- Generator: Adobe Illustrator 25.1.0, SVG Export Plug-In . SVG Version: 6.00 Build 0)  -->
<svg version="1.1" id="Layer_1" xmlns="http://www.w3.org/2000/svg" xmlns:xlink="http://www.w3.org/1999/xlink" x="0px" y="0px"
	 width="1920px" height="1080px" viewBox="0 0 1920 1080" enable-background="new 0 0 1920 1080" xml:space="preserve">
<path d="M265.4,431.6v216.7h1389.5V431.6H265.4z M279.4,445.6h338.2v188.7H279.4V445.6z"/>
<g>
	<path fill="#009FE3" d="M1323.9,508h-56.8c-3.3,0-6,2.7-6,6c0,3.3,2.7,6,6,6h22.4v45.9c0,3.3,2.7,6,6,6s6-2.7,6-6V520h22.4
		c3.3,0,6-2.7,6-6C1329.9,510.7,1327.2,508,1323.9,508z"/>
	<path fill="#009FE3" d="M1538.7,571.9c-1.6,0-3.1-0.6-4.3-1.8l-40.2-41.3v37.1c0,3.3-2.7,6-6,6s-6-2.7-6-6V514
		c0-2.4,1.5-4.6,3.7-5.6c2.3-0.9,4.9-0.4,6.6,1.4l40.2,41.3V514c0-3.3,2.7-6,6-6s6,2.7,6,6v51.9c0,2.4-1.5,4.6-3.7,5.6
		C1540.2,571.8,1539.5,571.9,1538.7,571.9z"/>
	<path fill="#009FE3" d="M1184,565.6l-31.7-57.1c-1.1-1.9-3.1-3.1-5.2-3.1c0,0,0,0,0,0c-2.2,0-4.2,1.2-5.2,3.1l-32.2,57.1
		c-1.6,2.9-0.6,6.5,2.3,8.2c2.9,1.6,6.5,0.6,8.2-2.3l8-14.2h37.5l7.9,14.2c1.1,2,3.1,3.1,5.3,3.1c1,0,2-0.2,2.9-0.8
		C1184.5,572.1,1185.6,568.5,1184,565.6z M1134.8,545.2l12.1-21.6l12,21.6H1134.8z"/>
	<path fill="#009FE3" d="M1375.3,559.9h-8.9V520h8.9c3.3,0,6-2.7,6-6c0-3.3-2.7-6-6-6h-29.8c-3.3,0-6,2.7-6,6c0,3.3,2.7,6,6,6h8.9
		v39.9h-8.9c-3.3,0-6,2.7-6,6s2.7,6,6,6h29.8c3.3,0,6-2.7,6-6S1378.7,559.9,1375.3,559.9z"/>
	<path fill="#009FE3" d="M842.4,539.9l24.3-24.3c2.3-2.3,2.3-6.1,0-8.5c-2.3-2.3-6.1-2.3-8.5,0l-24.3,24.3l-24.3-24.3
		c-2.3-2.3-6.1-2.3-8.5,0c-2.3,2.3-2.3,6.1,0,8.5l24.3,24.3l-24.3,24.3c-2.3,2.3-2.3,6.1,0,8.5c1.2,1.2,2.7,1.8,4.2,1.8
		s3.1-0.6,4.2-1.8l24.3-24.3l24.3,24.3c1.2,1.2,2.7,1.8,4.2,1.8s3.1-0.6,4.2-1.8c2.3-2.3,2.3-6.1,0-8.5L842.4,539.9z"/>
	<path fill="#009FE3" d="M778.4,562.1h-38.6v-16h31.8c3.3,0,6-2.7,6-6c0-3.3-2.7-6-6-6h-31.8v-16.4h38.6c3.3,0,6-2.7,6-6
		c0-3.3-2.7-6-6-6h-44.6c-3.3,0-6,2.7-6,6v56.4c0,3.3,2.7,6,6,6h44.6c3.3,0,6-2.7,6-6S781.7,562.1,778.4,562.1z"/>
	<path fill="#009FE3" d="M1091.2,562.1h-38.6v-16h31.8c3.3,0,6-2.7,6-6c0-3.3-2.7-6-6-6h-31.8v-16.4h38.6c3.3,0,6-2.7,6-6
		c0-3.3-2.7-6-6-6h-44.6c-3.3,0-6,2.7-6,6v56.4c0,3.3,2.7,6,6,6h44.6c3.3,0,6-2.7,6-6S1094.5,562.1,1091.2,562.1z"/>
	<path fill="#009FE3" d="M910.7,574.1c-20.2,0-36.5-15.1-36.5-33.7s16.4-33.7,36.5-33.7s36.5,15.1,36.5,33.7
		S930.8,574.1,910.7,574.1z M910.7,518.7c-13.5,0-24.5,9.8-24.5,21.7c0,12,11,21.7,24.5,21.7s24.5-9.8,24.5-21.7
		C935.2,528.4,924.2,518.7,910.7,518.7z"/>
	<path fill="#009FE3" d="M1430.6,574.1c-20.2,0-36.5-15.1-36.5-33.7s16.4-33.7,36.5-33.7s36.5,15.1,36.5,33.7
		S1450.8,574.1,1430.6,574.1z M1430.6,518.7c-13.5,0-24.5,9.8-24.5,21.7c0,12,11,21.7,24.5,21.7s24.5-9.8,24.5-21.7
		C1455.2,528.4,1444.1,518.7,1430.6,518.7z"/>
	<path fill="#009FE3" d="M1224,574.1c-20.2,0-36.5-15.1-36.5-33.7s16.4-33.7,36.5-33.7c9.7,0,18.8,3.4,25.6,9.7
		c2.5,2.2,2.6,6,0.4,8.5c-2.2,2.5-6,2.6-8.5,0.4c-4.7-4.2-10.9-6.6-17.6-6.6c-13.5,0-24.5,9.8-24.5,21.7c0,12,11,21.7,24.5,21.7
		c6.6,0,12.7-2.3,17.4-6.4c2.5-2.2,6.3-2,8.5,0.5c2.2,2.5,2,6.3-0.5,8.5C1242.5,570.8,1233.5,574.1,1224,574.1z"/>
	<path fill="#009FE3" d="M1019.8,563.8l-16.2-15.9c8.2-2.9,14.2-10.8,14.2-20.1c0-11.7-9.5-21.3-21.3-21.3h-27.8c-3.3,0-6,2.7-6,6
		v55.5c0,3.3,2.7,6,6,6s6-2.7,6-6v-18.9h13l23.7,23.2c2.4,2.3,6.2,2.3,8.5-0.1C1022.2,570,1022.2,566.2,1019.8,563.8z M996.5,537.2
		h-6.3h-15.5v-18.5h21.8c5.1,0,9.3,4.2,9.3,9.3C1005.8,533,1001.6,537.2,996.5,537.2z"/>
</g>
<g>
	<path fill="#009FE3" d="M329.6,574.5c-1.5,0-3.1-0.6-4.2-1.8c-2.3-2.3-2.3-6.1,0-8.5l57.1-57.1c2.3-2.3,6.1-2.3,8.5,0
		c2.3,2.3,2.3,6.1,0,8.5l-57.1,57.1C332.7,573.9,331.2,574.5,329.6,574.5z"/>
	<path fill="#009FE3" d="M520.3,574.1c-3.3,0-6-2.7-6-6v-56.4c0-3.3,2.7-6,6-6s6,2.7,6,6v56.4C526.3,571.4,523.6,574.1,520.3,574.1z
		"/>
	<path fill="#009FE3" d="M386.8,574.5c-1.5,0-3.1-0.6-4.2-1.8L368.8,559c-2.3-2.3-2.3-6.1,0-8.5c2.3-2.3,6.1-2.3,8.5,0l13.7,13.7
		c2.3,2.3,2.3,6.1,0,8.5C389.9,573.9,388.3,574.5,386.8,574.5z"/>
	<path fill="#009FE3" d="M373.1,554.8"/>
	<path fill="#009FE3" d="M343.3,525"/>
	<path fill="#009FE3" d="M343.3,531c-1.5,0-3.1-0.6-4.2-1.8l-13.6-13.6c-2.3-2.3-2.3-6.1,0-8.5s6.1-2.3,8.5,0l13.6,13.6
		c2.3,2.3,2.3,6.1,0,8.5C346.4,530.4,344.8,531,343.3,531z"/>
	<path fill="#009FE3" d="M440.1,571.8c-0.7,0-1.5-0.1-2.2-0.4c-13.1-5.1-21.5-17.4-21.5-31.4c0-13.4,7.9-25.5,20.2-30.9
		c3-1.3,6.6,0.1,7.9,3.1c1.3,3-0.1,6.6-3.1,7.9c-7.9,3.5-13,11.3-13,19.9c0,9,5.4,17,13.8,20.3c3.1,1.2,4.6,4.7,3.4,7.8
		C444.8,570.3,442.5,571.8,440.1,571.8z"/>
	<path fill="#009FE3" d="M459.8,571.9c-2.4,0-4.7-1.5-5.6-3.9c-1.1-3.1,0.4-6.6,3.6-7.7c8.5-3.1,14.2-11.3,14.2-20.4
		c0-8.9-5.6-17.1-13.9-20.3c-3.1-1.2-4.6-4.7-3.4-7.8c1.2-3.1,4.7-4.6,7.8-3.4c12.9,5,21.5,17.6,21.5,31.5
		c0,14.1-8.9,26.8-22.1,31.7C461.2,571.8,460.5,571.9,459.8,571.9z"/>
	<path fill="#009FE3" d="M567.1,574.1c-1.5,0-3-0.6-4.2-1.7l-25.4-24.9c-1.7-1.7-2.3-4.3-1.4-6.6c0.9-2.3,3.1-3.7,5.6-3.7h6.3
		c5.1,0,9.3-4.2,9.3-9.3c0-5.1-4.2-9.3-9.3-9.3h-6.3c-3.3,0-6-2.7-6-6c0-3.3,2.7-6,6-6h6.3c11.7,0,21.3,9.5,21.3,21.3
		c0,9.2-5.9,17.1-14.2,20.1l16.2,15.9c2.4,2.3,2.4,6.1,0.1,8.5C570.2,573.5,568.7,574.1,567.1,574.1z"/>
</g>
</svg>
